<svg width="212" height="71" viewBox="0 0 212 71" fill="none" xmlns="http://www.w3.org/2000/svg">
<g clip-path="url(#clip0)">
<path d="M195.118 0.00010868H16.8919C16.2422 0.00010868 15.6004 0.00010868 14.9524 0.00365868C14.4101 0.00720868 13.872 0.0175214 13.3244 0.0262012C12.1348 0.0402269 10.948 0.145084 9.77424 0.339861C8.60217 0.538879 7.46682 0.914084 6.40659 1.45279C5.34765 1.99605 4.38007 2.70196 3.53895 3.54491C2.69341 4.38549 1.98859 5.35709 1.45158 6.42234C0.913097 7.48548 0.539709 8.62472 0.344316 9.80074C0.147064 10.9753 0.0409217 12.1633 0.0268401 13.3543C0.0103994 13.8985 0.00866325 14.4445 0 14.9888V56.0166C0.00866325 56.5678 0.0103994 57.1017 0.0268401 57.653C0.040926 58.8439 0.147069 60.0319 0.344316 61.2064C0.53917 62.3831 0.912579 63.523 1.45158 64.5865C1.98834 65.6483 2.69326 66.616 3.53895 67.4519C4.37688 68.2986 5.34509 69.005 6.40659 69.5441C7.46682 70.0842 8.60204 70.4617 9.77424 70.6637C10.9482 70.857 12.1349 70.9619 13.3244 70.9776C13.872 70.9896 14.4101 70.9966 14.9524 70.9966C15.6004 71.0001 16.2423 71.0001 16.8919 71.0001H195.118C195.754 71.0001 196.401 71.0001 197.038 70.9966C197.578 70.9966 198.132 70.9896 198.671 70.9776C199.859 70.9627 201.043 70.8578 202.215 70.6637C203.391 70.4602 204.53 70.0829 205.595 69.5441C206.656 69.0047 207.623 68.2983 208.46 67.4519C209.304 66.6127 210.01 65.6457 210.554 64.5865C211.089 63.5222 211.458 62.3824 211.65 61.2064C211.848 60.0317 211.958 58.844 211.979 57.653C211.986 57.1017 211.986 56.5678 211.986 56.0166C212 55.3718 212 54.7305 212 54.0751V16.9267C212 16.2767 212 15.6319 211.986 14.9888C211.986 14.4445 211.986 13.8985 211.979 13.3542C211.958 12.1632 211.848 10.9754 211.65 9.80066C211.458 8.62533 211.088 7.48618 210.554 6.42227C209.46 4.28708 207.726 2.54905 205.595 1.45263C204.53 0.915241 203.39 0.540135 202.215 0.339702C201.043 0.144066 199.859 0.0391725 198.671 0.0259527C198.132 0.0172907 197.578 0.00688918 197.038 0.00342793C196.401 -0.00012207 195.754 -0.00012207 195.118 -0.00012207V0.00010868Z" fill="#A6A6A6"/>
<path d="M14.9611 69.4469C14.4213 69.4469 13.8946 69.44 13.359 69.4279C12.2496 69.4134 11.1428 69.3166 10.0476 69.1384C9.02642 68.9622 8.03717 68.6344 7.11248 68.1659C6.19626 67.7012 5.36061 67.0919 4.63751 66.3614C3.90396 65.6395 3.29323 64.8021 2.82955 63.8826C2.36076 62.9571 2.03633 61.9651 1.86756 60.9411C1.6853 59.8408 1.58669 58.7282 1.57258 57.613C1.56135 57.2386 1.54665 55.9922 1.54665 55.9922V14.9887C1.54665 14.9887 1.56231 13.7615 1.57267 13.4009C1.58618 12.2874 1.68422 11.1766 1.86593 10.078C2.03501 9.05118 2.35969 8.05629 2.82874 7.12775C3.29071 6.20886 3.89805 5.37091 4.62719 4.64639C5.35551 3.91498 6.19384 3.30258 7.11161 2.8315C8.03417 2.36447 9.02155 2.03901 10.0407 1.86601C11.1394 1.68597 12.2501 1.58862 13.3634 1.5748L14.962 1.55313H197.029L198.647 1.57567C199.75 1.58881 200.851 1.68528 201.939 1.86427C202.969 2.03944 203.967 2.36717 204.9 2.8367C206.738 3.78606 208.234 5.28802 209.178 7.13208C209.64 8.05421 209.959 9.04098 210.126 10.0589C210.31 11.1665 210.413 12.2861 210.434 13.4087C210.439 13.9114 210.439 14.4513 210.439 14.9887C210.453 15.6543 210.453 16.2879 210.453 16.9266V54.075C210.453 54.7199 210.453 55.3491 210.439 55.9835C210.439 56.5607 210.439 57.0895 210.432 57.6337C210.412 58.7363 210.311 59.8359 210.13 60.9237C209.964 61.9551 209.642 62.9548 209.173 63.8879C208.706 64.7975 208.099 65.6276 207.374 66.3476C206.65 67.082 205.813 67.6949 204.895 68.1625C203.964 68.6346 202.968 68.9636 201.939 69.1384C200.844 69.3176 199.737 69.4144 198.628 69.4279C198.109 69.44 197.566 69.4469 197.038 69.4469L195.118 69.4504L14.9611 69.4469Z" fill="black"/>
<path d="M43.8812 36.0337C43.9003 34.5522 44.293 33.0996 45.023 31.811C45.7529 30.5224 46.7964 29.4398 48.0561 28.6638C47.2558 27.5186 46.2 26.5762 44.9726 25.9114C43.7452 25.2466 42.3799 24.8776 40.9853 24.8339C38.0103 24.5211 35.1262 26.6175 33.6102 26.6175C32.0649 26.6175 29.7307 24.865 27.2173 24.9168C25.5915 24.9694 24.0071 25.4431 22.6183 26.2916C21.2296 27.1402 20.0839 28.3347 19.2929 29.7588C15.8666 35.7022 18.4223 44.4371 21.7045 49.2413C23.3466 51.5938 25.2658 54.2216 27.777 54.1284C30.2343 54.0263 31.1521 52.5585 34.1183 52.5585C37.057 52.5585 37.9181 54.1284 40.4802 54.0692C43.1171 54.0263 44.7784 51.7062 46.3629 49.3314C47.5428 47.6552 48.4507 45.8026 49.053 43.8422C47.5211 43.1931 46.2137 42.1065 45.2941 40.7179C44.3744 39.3293 43.883 37.7002 43.8812 36.0337Z" fill="white"/>
<path d="M39.0418 21.6743C40.4795 19.9451 41.1878 17.7225 41.0163 15.4785C38.8198 15.7096 36.7908 16.7614 35.3336 18.4243C34.6212 19.2366 34.0755 20.1817 33.7279 21.2055C33.3802 22.2293 33.2373 23.3116 33.3074 24.3908C34.4061 24.4021 35.493 24.1635 36.4863 23.693C37.4795 23.2225 38.3533 22.5322 39.0418 21.6743Z" fill="white"/>
<path d="M74.9438 48.1729H66.558L64.5442 54.1306H60.9923L68.9352 32.0886H72.6255L80.5684 54.1306H76.9559L74.9438 48.1729ZM67.4265 45.4237H74.0737L70.7968 35.7548H70.7051L67.4265 45.4237Z" fill="white"/>
<path d="M97.7224 46.0963C97.7224 51.0902 95.0545 54.2987 91.0286 54.2987C90.0087 54.3522 88.9945 54.1168 88.102 53.6196C87.2094 53.1223 86.4747 52.3833 85.9819 51.4871H85.9057V59.4469H82.6133V38.0602H85.8002V40.7331H85.8608C86.3762 39.8413 87.1234 39.1061 88.0227 38.6058C88.922 38.1055 89.9399 37.8589 90.968 37.8921C95.0389 37.8921 97.7224 41.1162 97.7224 46.0963ZM94.3383 46.0963C94.3383 42.8427 92.6601 40.7037 90.0995 40.7037C87.5839 40.7037 85.8919 42.8878 85.8919 46.0963C85.8919 49.3343 87.5839 51.5028 90.0995 51.5028C92.6601 51.5028 94.3383 49.3793 94.3383 46.0963Z" fill="white"/>
<path d="M115.376 46.0963C115.376 51.0902 112.709 54.2987 108.683 54.2987C107.663 54.3522 106.648 54.1168 105.756 53.6195C104.863 53.1223 104.129 52.3833 103.636 51.4871H103.56V59.4469H100.267V38.0602H103.454V40.7331H103.515C104.03 39.8412 104.777 39.1061 105.677 38.6058C106.576 38.1055 107.594 37.8589 108.622 37.8921C112.693 37.8921 115.376 41.1162 115.376 46.0963ZM111.992 46.0963C111.992 42.8427 110.314 40.7037 107.753 40.7037C105.238 40.7037 103.546 42.8877 103.546 46.0963C103.546 49.3343 105.238 51.5027 107.753 51.5027C110.314 51.5027 111.992 49.3793 111.992 46.0963H111.992Z" fill="white"/>
<path d="M127.044 47.9891C127.288 50.175 129.408 51.6101 132.304 51.6101C135.079 51.6101 137.075 50.1749 137.075 48.204C137.075 46.4931 135.871 45.4687 133.02 44.7667L130.169 44.0785C126.129 43.1009 124.253 41.208 124.253 38.1364C124.253 34.3333 127.561 31.7211 132.259 31.7211C136.907 31.7211 140.094 34.3333 140.202 38.1364H136.878C136.679 35.9367 134.864 34.609 132.212 34.609C129.56 34.609 127.745 35.9523 127.745 37.9076C127.745 39.4659 128.904 40.3829 131.74 41.0849L134.163 41.6812C138.677 42.7507 140.553 44.5673 140.553 47.7914C140.553 51.9151 137.274 54.4979 132.06 54.4979C127.181 54.4979 123.887 51.9758 123.674 47.989L127.044 47.9891Z" fill="white"/>
<path d="M147.658 34.2572V38.0603H150.708V40.6725H147.658V49.5319C147.658 50.9082 148.269 51.5496 149.61 51.5496C149.972 51.5432 150.334 51.5178 150.693 51.4732V54.0699C150.09 54.1827 149.477 54.2338 148.864 54.2224C145.617 54.2224 144.35 53.0004 144.35 49.8837V40.6725H142.018V38.0603H144.35V34.2572H147.658Z" fill="white"/>
<path d="M152.475 46.0963C152.475 41.04 155.447 37.8626 160.082 37.8626C164.733 37.8626 167.691 41.0399 167.691 46.0963C167.691 51.1665 164.748 54.3299 160.082 54.3299C155.418 54.3299 152.475 51.1665 152.475 46.0963ZM164.337 46.0963C164.337 42.6278 162.75 40.5806 160.082 40.5806C157.414 40.5806 155.83 42.6434 155.83 46.0963C155.83 49.5787 157.414 51.6102 160.082 51.6102C162.75 51.6102 164.337 49.5787 164.337 46.0963H164.337Z" fill="white"/>
<path d="M170.406 38.0602H173.546V40.7955H173.622C173.835 39.9412 174.334 39.1863 175.037 38.6575C175.739 38.1288 176.602 37.8585 177.48 37.8921C177.86 37.8907 178.238 37.932 178.608 38.0152V41.1006C178.129 40.954 177.63 40.8866 177.129 40.9013C176.651 40.8818 176.174 40.9663 175.731 41.1489C175.289 41.3316 174.891 41.608 174.565 41.9593C174.239 42.3105 173.993 42.7283 173.843 43.1839C173.693 43.6394 173.644 44.1221 173.698 44.5986V54.1306H170.406L170.406 38.0602Z" fill="white"/>
<path d="M193.788 49.4105C193.345 52.3278 190.51 54.3299 186.882 54.3299C182.215 54.3299 179.319 51.1977 179.319 46.1725C179.319 41.1318 182.231 37.8626 186.743 37.8626C191.181 37.8626 193.972 40.9169 193.972 45.7895V46.9196H182.643V47.119C182.591 47.7104 182.664 48.3062 182.86 48.8668C183.055 49.4275 183.367 49.94 183.775 50.3706C184.183 50.8011 184.678 51.1397 185.227 51.3639C185.775 51.5881 186.365 51.6927 186.958 51.6709C187.736 51.7439 188.516 51.5634 189.184 51.1561C189.851 50.7489 190.37 50.1366 190.662 49.4105L193.788 49.4105ZM182.658 44.6142H190.677C190.707 44.0824 190.626 43.5503 190.441 43.0511C190.256 42.552 189.969 42.0966 189.6 41.7136C189.23 41.3307 188.786 41.0283 188.294 40.8256C187.803 40.6228 187.275 40.5241 186.743 40.5355C186.207 40.5323 185.675 40.6355 185.179 40.8392C184.683 41.0429 184.232 41.343 183.853 41.7222C183.473 42.1014 183.172 42.5522 182.967 43.0485C182.762 43.5449 182.657 44.0771 182.658 44.6142V44.6142Z" fill="white"/>
<path d="M65.0865 19.9748H66.5C66.7434 20.0052 66.9903 19.9847 67.2253 19.9147C67.4604 19.8447 67.6784 19.7267 67.8657 19.568C68.0529 19.4094 68.2053 19.2137 68.3133 18.9931C68.4213 18.7725 68.4825 18.532 68.4931 18.2865C68.4931 17.3097 67.7595 16.6788 66.5156 16.6788C66.2663 16.6439 66.0126 16.6594 65.7693 16.7244C65.5261 16.7893 65.2984 16.9025 65.0995 17.0571C64.9007 17.2117 64.7348 17.4047 64.6116 17.6247C64.4884 17.8446 64.4105 18.087 64.3824 18.3376H62.8304C62.8571 17.8827 62.977 17.4382 63.1827 17.0317C63.3883 16.6252 63.6752 16.2654 64.0256 15.9749C64.376 15.6843 64.7824 15.4691 65.2194 15.3427C65.6564 15.2163 66.1147 15.1813 66.5657 15.2401C68.647 15.2401 70.1125 16.4075 70.1125 18.088C70.1174 18.651 69.9294 19.1987 69.5799 19.6395C69.2304 20.0804 68.7405 20.3878 68.1921 20.5105V20.6353C68.8423 20.6642 69.4546 20.9498 69.8952 21.4297C70.3358 21.9096 70.5688 22.5448 70.5433 23.1964C70.4952 23.6648 70.3542 24.1188 70.1287 24.532C69.9031 24.9451 69.5976 25.3089 69.2299 25.6022C68.8621 25.8954 68.4397 26.1122 67.9873 26.2398C67.5349 26.3673 67.0616 26.4031 66.5952 26.3451C66.1278 26.4089 65.6524 26.3778 65.1973 26.2536C64.7421 26.1295 64.3166 25.9148 63.9461 25.6223C63.5756 25.3298 63.2676 24.9656 63.0406 24.5514C62.8135 24.1371 62.6721 23.6813 62.6246 23.2111H64.2007C64.2959 24.2243 65.225 24.8778 66.5952 24.8778C67.9654 24.8778 68.8599 24.1437 68.8599 23.1089C68.8599 22.0593 68.0173 21.4128 66.545 21.4128H65.0865V19.9748Z" fill="white"/>
<path d="M72.3339 23.8282C72.3339 22.3894 73.4049 21.56 75.301 21.4421L77.462 21.3173V20.6275C77.462 19.7833 76.9066 19.3066 75.8287 19.3066C74.9499 19.3066 74.3426 19.6299 74.1661 20.195H72.6419C72.8028 18.8221 74.0934 17.9416 75.9031 17.9416C77.9031 17.9416 79.0312 18.9391 79.0312 20.6275V26.0885H77.5139V24.9653H77.3893C77.1365 25.3682 76.7814 25.6967 76.3604 25.9171C75.9395 26.1376 75.4676 26.2422 74.9931 26.2202C74.6582 26.2551 74.3197 26.2193 73.9995 26.1151C73.6792 26.0109 73.3843 25.8407 73.1338 25.6153C72.8833 25.3899 72.6826 25.1145 72.5449 24.8066C72.4071 24.4988 72.3352 24.1655 72.3339 23.8282ZM77.462 23.1452V22.477L75.5138 22.6018C74.4152 22.6754 73.9169 23.0499 73.9169 23.7545C73.9169 24.4738 74.5397 24.8925 75.3962 24.8925C75.6471 24.9179 75.9006 24.8925 76.1416 24.8178C76.3826 24.7431 76.6061 24.6206 76.7988 24.4576C76.9915 24.2946 77.1496 24.0944 77.2635 23.8689C77.3774 23.6435 77.4449 23.3973 77.462 23.1452Z" fill="white"/>
<path d="M83.2094 19.4236V26.0885H81.635V18.0958H86.8876V19.4235L83.2094 19.4236Z" fill="white"/>
<path d="M96.4291 22.0887C96.4291 24.6281 95.1471 26.2203 93.1332 26.2203C92.6389 26.2541 92.1452 26.1457 91.7102 25.9079C91.2753 25.67 90.9173 25.3126 90.6782 24.8778H90.5537V28.7458H88.9793V18.0958H90.4948V19.4167H90.6125C90.8558 18.9667 91.2185 18.5927 91.6606 18.3362C92.1027 18.0798 92.607 17.9507 93.1177 17.9633C95.1471 17.9632 96.4291 19.5484 96.4291 22.0887ZM94.8097 22.0887C94.8097 20.4004 94.0121 19.3803 92.6782 19.3803C91.3531 19.3803 90.5243 20.422 90.5243 22.0957C90.5243 23.7615 91.353 24.8041 92.6713 24.8041C94.0121 24.8041 94.8097 23.784 94.8097 22.0887Z" fill="white"/>
<path d="M98.526 28.9512V27.5931C98.6963 27.6148 98.868 27.6247 99.0397 27.6226C99.3752 27.6475 99.708 27.5474 99.9743 27.3415C100.241 27.1357 100.422 26.8385 100.483 26.5071L100.6 26.118L97.7128 18.0958H99.4273L101.427 24.4444H101.552L103.545 18.0958H105.215L102.241 26.4187C101.559 28.3636 100.805 28.9877 99.1782 28.9877C99.0467 28.9876 98.673 28.9729 98.526 28.9512Z" fill="white"/>
<path d="M106.441 23.8204H108.009C108.163 24.5251 108.822 24.8925 109.744 24.8925C110.792 24.8925 111.436 24.4297 111.436 23.7103C111.436 22.9398 110.858 22.5724 109.744 22.5724H108.55V21.3468H109.723C110.675 21.3468 111.159 20.9802 111.159 20.312C111.159 19.7253 110.69 19.2772 109.723 19.2772C108.843 19.2772 108.199 19.6516 108.097 20.2826H106.58C106.693 19.5576 107.086 18.9061 107.674 18.4683C108.262 18.0305 108.998 17.8414 109.723 17.9416C111.619 17.9416 112.704 18.8005 112.704 20.1508C112.713 20.5269 112.593 20.8945 112.364 21.1924C112.134 21.4902 111.81 21.7002 111.445 21.7872V21.912C111.879 21.9682 112.279 22.1823 112.566 22.5138C112.854 22.8453 113.01 23.2711 113.005 23.7104C113.005 25.2298 111.715 26.2351 109.744 26.2351C108.002 26.235 106.587 25.435 106.441 23.8204Z" fill="white"/>
<path d="M115.273 26.0885V18.0958H116.833V23.5933H116.958L120.634 18.0958H122.195V26.0885H120.634V20.5616H120.516L116.833 26.0886L115.273 26.0885Z" fill="white"/>
<path d="M130.792 19.4236H128.279V26.0885H126.703V19.4236H124.191V18.0959H130.792V19.4236Z" fill="white"/>
<path d="M139.273 23.9304C139.058 24.6609 138.594 25.2926 137.962 25.7153C137.33 26.1379 136.57 26.3246 135.814 26.2428C135.288 26.2567 134.766 26.1558 134.283 25.9472C133.801 25.7386 133.369 25.4272 133.018 25.0347C132.668 24.6422 132.407 24.1779 132.253 23.6741C132.099 23.1704 132.057 22.6391 132.129 22.1173C132.059 21.5939 132.102 21.0615 132.255 20.5562C132.408 20.0509 132.668 19.5845 133.017 19.1885C133.366 18.7926 133.795 18.4763 134.277 18.2612C134.758 18.046 135.28 17.937 135.807 17.9415C138.027 17.9415 139.368 19.4609 139.368 21.9708V22.5212H133.734V22.6096C133.71 22.903 133.746 23.1983 133.842 23.4767C133.938 23.7551 134.091 24.0103 134.291 24.2259C134.491 24.4416 134.734 24.6129 135.004 24.7289C135.274 24.8448 135.565 24.9029 135.859 24.8994C136.235 24.9444 136.617 24.8764 136.954 24.7039C137.292 24.5313 137.571 24.2621 137.755 23.9304L139.273 23.9304ZM133.734 21.3546H137.762C137.782 21.0865 137.746 20.8172 137.656 20.564C137.565 20.3107 137.423 20.0792 137.239 19.8842C137.054 19.6892 136.83 19.5351 136.583 19.4318C136.335 19.3284 136.068 19.2781 135.8 19.2841C135.528 19.2804 135.257 19.3314 135.005 19.4341C134.753 19.5369 134.523 19.6893 134.331 19.8823C134.138 20.0753 133.986 20.3051 133.884 20.558C133.781 20.8108 133.731 21.0817 133.734 21.3546H133.734Z" fill="white"/>
<path d="M145.947 18.0958H149.544C151.105 18.0958 152.02 18.888 152.02 20.1282C152.022 20.5217 151.89 20.9042 151.644 21.2115C151.399 21.5188 151.056 21.7324 150.672 21.8165V21.9413C151.138 21.9708 151.575 22.1785 151.892 22.5214C152.21 22.8643 152.384 23.3163 152.378 23.7839C152.378 25.1784 151.331 26.0885 149.58 26.0885H145.947V18.0958ZM147.508 19.3066V21.3763H149.068C150.02 21.3763 150.475 21.0096 150.475 20.3336C150.475 19.7105 150.079 19.3066 149.243 19.3066L147.508 19.3066ZM147.508 22.5359V24.8778H149.375C150.305 24.8778 150.804 24.4661 150.804 23.7103C150.804 22.9104 150.24 22.536 149.177 22.536L147.508 22.5359Z" fill="white"/>
</g>
<defs>
<clipPath id="clip0">
<rect width="212" height="71" fill="white"/>
</clipPath>
</defs>
</svg>
