<svg width="64" height="64" viewBox="0 0 64 64" fill="none" xmlns="http://www.w3.org/2000/svg">
<g clip-path="url(#clip0)">
<rect width="64" height="64" fill="white"/>
<g filter="url(#filter0_i)">
<path d="M13.5543 32.9059C13.1377 32.4893 13.1377 31.8139 13.5543 31.3974L18.0797 26.8719C18.4963 26.4553 19.1717 26.4553 19.5882 26.8719L24.1137 31.3974C24.5303 31.8139 24.5303 32.4893 24.1137 32.9059L19.5882 37.4313C19.1717 37.8479 18.4963 37.8479 18.0797 37.4313L13.5543 32.9059Z" fill="#4F4F4F"/>
</g>
<g filter="url(#filter1_i)">
<path d="M22.6052 41.9568C22.1887 41.5403 22.1887 40.8649 22.6052 40.4483L45.2326 17.8209C45.6492 17.4044 46.3246 17.4044 46.7411 17.8209L51.2666 22.3464C51.6832 22.763 51.6832 23.4383 51.2666 23.8549L28.6392 46.4823C28.2226 46.8989 27.5473 46.8989 27.1307 46.4823L22.6052 41.9568Z" fill="#4F4F4F"/>
</g>
</g>
<defs>
<filter id="filter0_i" x="13.2418" y="26.5595" width="11.1843" height="13.1843" filterUnits="userSpaceOnUse" color-interpolation-filters="sRGB">
<feFlood flood-opacity="0" result="BackgroundImageFix"/>
<feBlend mode="normal" in="SourceGraphic" in2="BackgroundImageFix" result="shape"/>
<feColorMatrix in="SourceAlpha" type="matrix" values="0 0 0 0 0 0 0 0 0 0 0 0 0 0 0 0 0 0 127 0" result="hardAlpha"/>
<feOffset dy="4"/>
<feGaussianBlur stdDeviation="1"/>
<feComposite in2="hardAlpha" operator="arithmetic" k2="-1" k3="1"/>
<feColorMatrix type="matrix" values="0 0 0 0 0 0 0 0 0 0 0 0 0 0 0 0 0 0 0.25 0"/>
<feBlend mode="normal" in2="shape" result="effect1_innerShadow"/>
</filter>
<filter id="filter1_i" x="22.2928" y="17.5085" width="29.2862" height="31.2862" filterUnits="userSpaceOnUse" color-interpolation-filters="sRGB">
<feFlood flood-opacity="0" result="BackgroundImageFix"/>
<feBlend mode="normal" in="SourceGraphic" in2="BackgroundImageFix" result="shape"/>
<feColorMatrix in="SourceAlpha" type="matrix" values="0 0 0 0 0 0 0 0 0 0 0 0 0 0 0 0 0 0 127 0" result="hardAlpha"/>
<feOffset dy="4"/>
<feGaussianBlur stdDeviation="1"/>
<feComposite in2="hardAlpha" operator="arithmetic" k2="-1" k3="1"/>
<feColorMatrix type="matrix" values="0 0 0 0 0 0 0 0 0 0 0 0 0 0 0 0 0 0 0.25 0"/>
<feBlend mode="normal" in2="shape" result="effect1_innerShadow"/>
</filter>
<clipPath id="clip0">
<rect width="64" height="64" fill="white"/>
</clipPath>
</defs>
</svg>
